#!OML:ASF H:\Pregnant\Project 1\Capture day 1\Session 1\femalepreg.ASF
:FULLY-SPECIFIED
:DEGREES
1436
root -10.8803 15.4785 15.1132 20.4817 -4.29407 353.896
lowerback -15.1386 2.61626 8.40816
upperback -4.67768 2.09498 1.97876
thorax 3.71131 1.04099 -2.26863
lowerneck -18.2429 5.24403 6.50802
upperneck 33.1793 7.35685 -4.97317
head 15.0687 3.27144 -1.84764
rclavicle 1.1778e-014 1.90833e-014
rhumerus -27.7146 -9.00971 -78.9514
rradius 24.8861
rwrist 0.910375
rhand -12.0108 -13.7836
rfingers 7.12502
rthumb 14.0466 -43.2889
lclavicle 1.1778e-014 1.90833e-014
lhumerus -36.9814 3.52057 74.0782
lradius 35.8752
lwrist 43.2161
lhand -19.7198 -9.80196
lfingers 7.12502
lthumb 6.61028 20.0749
rfemur -8.88523 11.4515 33.3182
rtibia 21.5484
rfoot -18.0897 -2.43949
rtoes -14.063
lfemur -51.1764 -7.81493 -18.4678
ltibia 22.2755
lfoot -1.6229 1.05855
ltoes -22.1042
1437
root -10.8989 15.476 15.2558 20.6594 -4.45917 353.868
lowerback -15.5571 2.57878 8.012
upperback -4.80002 2.07092 1.89871
thorax 3.79559 1.02801 -2.1264
lowerneck -18.1801 5.30148 6.59739
upperneck 33.1275 7.38331 -4.89452
head 15.0328 3.30593 -1.82568
rclavicle 1.33434e-014 0
rhumerus -28.086 -9.65761 -78.672
rradius 24.7486
rwrist 1.06493
rhand -12.1176 -13.809
rfingers 7.12502
rthumb 13.9437 -43.3215
lclavicle 1.33434e-014 0
lhumerus -37.0516 3.68531 73.7957
lradius 35.5637
lwrist 43.2443
lhand -19.7881 -9.78461
lfingers 7.12502
lthumb 6.54437 20.0943
rfemur -8.12253 11.6079 33.3472
rtibia 20.8118
rfoot -17.6142 -2.16421
rtoes -14.5338
lfemur -51.2958 -7.76203 -18.5055
ltibia 23.0262
lfoot -0.575749 0.858793
ltoes -20.8576
1438
root -10.9186 15.4747 15.3989 20.8177 -4.61629 353.911
lowerback -15.9698 2.51623 7.524
upperback -4.91508 2.0328 1.80416
thorax 3.88093 1.00827 -1.95095
lowerneck -18.1394 5.35318 6.67128
upperneck 33.0975 7.40137 -4.80104
head 15.01 3.33635 -1.79635
rclavicle -1.20265e-014 -2.74323e-014
rhumerus -28.4558 -10.3058 -78.3824
rradius 24.5903
rwrist 1.1962
rhand -12.2977 -13.8284
rfingers 7.12502
rthumb 13.7701 -43.3527
lclavicle -1.20265e-014 -2.74323e-014
lhumerus -37.0899 3.86203 73.5218
lradius 35.1708
lwrist 43.2271
lhand -19.8381 -9.79796
lfingers 7.12502
lthumb 6.49609 20.0824
rfemur -7.41736 11.7529 33.3203
rtibia 20.2067
rfoot -17.1134 -1.94235
rtoes -15.1618
lfemur -51.3759 -7.68405 -18.6308
ltibia 23.6903
lfoot 0.513818 0.481901
ltoes -19.5363
1439
root -10.9399 15.4739 15.5422 20.9454 -4.76222 354.034
lowerback -16.3678 2.42678 6.93672
upperback -5.01714 1.98124 1.69209
thorax 3.96904 0.982216 -1.7413
lowerneck -18.1215 5.39656 6.72486
upperneck 33.0835 7.40786 -4.69152
head 14.9971 3.36099 -1.75881
rclavicle 5.29264e-015 2.56432e-014
rhumerus -28.8091 -10.9499 -78.0839
rradius 24.3924
rwrist 1.29797
rhand -12.5658 -13.8413
rfingers 7.12502
rthumb 13.5117 -43.383
lclavicle 5.29264e-015 2.56432e-014
lhumerus -37.088 4.0413 73.2599
lradius 34.6936
lwrist 43.1573
lhand -19.8902 -9.82104
lfingers 7.12502
lthumb 6.44581 20.0609
rfemur -6.79389 11.8755 33.2306
rtibia 19.7951
rfoot -16.6269 -1.7674
rtoes -15.8852
lfemur -51.3858 -7.56171 -18.8777
ltibia 24.2632
lfoot 1.52794 -0.0892858
ltoes -18.0959
1440
root -10.9623 15.4736 15.6852 21.0363 -4.90161 354.244
lowerback -16.7413 2.30472 6.24919
upperback -5.09808 1.91034 1.5642
thorax 4.06325 0.947044 -1.49628
lowerneck -18.1466 5.43676 6.75104
upperneck 33.0854 7.41339 -4.5712
head 14.9994 3.38226 -1.71152
rclavicle 4.40743e-014 2.68359e-014
rhumerus -29.135 -11.5692 -77.7825
rradius 24.1605
rwrist 1.35219
rhand -12.905 -13.819
rfingers 7.12502
rthumb 13.1847 -43.3821
lclavicle 4.40743e-014 2.68359e-014
lhumerus -37.041 4.24383 73.0078
lradius 34.1316
lwrist 43.0364
lhand -19.9221 -9.86683
lfingers 7.12502
lthumb 6.41498 20.016
rfemur -6.27765 11.9496 33.0666
rtibia 19.6276
rfoot -16.1826 -1.60694
rtoes -16.6481
lfemur -51.3047 -7.40059 -19.256
ltibia 24.7551
lfoot 2.38557 -0.777062
ltoes -16.4187
1441
root -10.9856 15.4737 15.8276 21.0837 -5.02248 354.536
lowerback -17.0773 2.15895 5.48079
upperback -5.1659 1.83158 1.4045
thorax 4.15053 0.907761 -1.24175
lowerneck -18.1859 5.46223 6.76003
upperneck 33.0919 7.39233 -4.42428
head 15.0027 3.39355 -1.655
rclavicle 4.47266e-015 5.76476e-015
rhumerus -29.4798 -12.1742 -77.4874
rradius 23.9418
rwrist 1.35723
rhand -13.2846 -13.802
rfingers 7.12502
rthumb 12.8188 -43.3884
lclavicle 4.47266e-015 5.76476e-015
lhumerus -36.9485 4.42348 72.7573
lradius 33.4862
lwrist 42.8683
lhand -19.9625 -9.90404
lfingers 7.12502
lthumb 6.376 19.98
rfemur -5.87969 11.9554 32.8323
rtibia 19.7333
rfoot -15.7896 -1.43424
rtoes -17.3505
lfemur -51.1204 -7.24488 -19.7381
ltibia 25.1888
lfoot 2.99132 -1.45987
ltoes -14.652
1442
root -11.0093 15.4745 15.9687 21.0821 -5.11993 354.9
lowerback -17.3564 1.9872 4.64855
upperback -5.22349 1.74021 1.21677
thorax 4.21776 0.861729 -0.98465
lowerneck -18.2443 5.47891 6.75802
upperneck 33.1133 7.35306 -4.25446
head 15.0142 3.39854 -1.59022
rclavicle 8.71081e-015 -1.42131e-014
rhumerus -29.8615 -12.7405 -77.2013
rradius 23.7716
rwrist 1.31636
rhand -13.6388 -13.8185
rfingers 7.12502
rthumb 12.4773 -43.426
lclavicle 8.71081e-015 -1.42131e-014
lhumerus -36.8362 4.57622 72.5085
lradius 32.7918
lwrist 42.6613
lhand -20.0008 -9.90686
lfingers 7.12502
lthumb 6.33905 19.9783
rfemur -5.60285 11.8873 32.5329
rtibia 20.1157
rfoot -15.4463 -1.2265
rtoes -17.9921
lfemur -50.8399 -7.16001 -20.2664
ltibia 25.588
lfoot 3.32065 -2.02704
ltoes -12.8995
